<svg xmlns="http://www.w3.org/2000/svg" width="204" height="182" viewBox="0 0 204 182" version="1.1"><path d="M 38.813 6.683 C 39.534 6.972, 40.397 6.936, 40.729 6.604 C 41.061 6.272, 40.471 6.036, 39.417 6.079 C 38.252 6.127, 38.015 6.364, 38.813 6.683 M 166.813 6.683 C 167.534 6.972, 168.397 6.936, 168.729 6.604 C 169.061 6.272, 168.471 6.036, 167.417 6.079 C 166.252 6.127, 166.015 6.364, 166.813 6.683 M 23.872 13.750 C 22.629 15.336, 22.664 15.371, 24.250 14.128 C 25.916 12.821, 26.445 12, 25.622 12 C 25.415 12, 24.627 12.787, 23.872 13.750 M 34 33.961 L 34 43 37 43 L 40 43 40 37 L 40 31 46.066 31 C 52.094 31, 52.131 30.983, 51.816 28.250 C 51.501 25.509, 51.471 25.499, 42.750 25.211 L 34 24.922 34 33.961 M 155 28 C 155 30.966, 155.061 31, 160.450 31 L 165.900 31 166.200 36.750 C 166.484 42.193, 166.647 42.517, 169.250 42.816 L 172 43.133 172 34.066 L 172 25 163.500 25 L 155 25 155 28 M 190.015 28.191 C 190.007 29.121, 190.450 30.160, 191 30.500 C 192.266 31.282, 192.266 29.958, 191 28 C 190.165 26.707, 190.029 26.734, 190.015 28.191 M 107.399 29.401 C 107.104 30.172, 107.005 36.135, 107.181 42.651 L 107.500 54.500 114.500 54.500 L 121.500 54.500 121.794 61.750 L 122.088 69 135.044 69 L 148 69 148 48.500 L 148 28 127.969 28 C 111.711 28, 107.836 28.264, 107.399 29.401 M 58 53.500 L 58 69 71.500 69 L 85 69 85 62.046 L 85 55.091 91.750 54.796 L 98.500 54.500 98.790 46.250 L 99.081 38 78.540 38 L 58 38 58 53.500 M 93.667 63.667 C 93.300 64.033, 93 71.008, 93 79.167 L 93 94 85.411 94 L 77.822 94 80.515 97.250 C 81.996 99.037, 87.750 105.138, 93.302 110.806 L 103.396 121.112 115.647 108.306 C 122.385 101.263, 127.921 95.182, 127.949 94.794 C 127.977 94.405, 124.737 93.955, 120.750 93.794 L 113.500 93.500 113.224 78.250 L 112.948 63 103.641 63 C 98.522 63, 94.033 63.300, 93.667 63.667 M 140 94.941 C 140 105.359, 140.339 114.091, 140.753 114.347 C 141.438 114.771, 170.342 98.058, 172.285 96.115 C 172.742 95.658, 170.953 93.937, 168.308 92.292 C 165.664 90.647, 158.739 86.308, 152.920 82.651 C 147.101 78.993, 141.814 76, 141.170 76 C 140.318 76, 140 81.143, 140 94.941 M 34 94.976 L 34 113 51.523 113 L 69.046 113 68.773 95.250 L 68.500 77.500 51.250 77.226 L 34 76.953 34 94.976 M 65.925 137.184 C 65.337 139.669, 64.984 150.800, 65.436 152.603 L 66.038 155 103.519 155 L 141 155 141 146 L 141 137 138 137 L 135 137 135 143 L 135 149 102.927 149 L 70.855 149 71.127 143.250 C 71.390 137.670, 71.319 137.491, 68.699 137.184 C 67.215 137.010, 65.966 137.010, 65.925 137.184 M 34.667 143.667 C 34.300 144.033, 34 148.083, 34 152.667 L 34 161 43 161 L 52 161 52 158 L 52 155 46 155 L 40 155 40 149 C 40 143.381, 39.852 143, 37.667 143 C 36.383 143, 35.033 143.300, 34.667 143.667 M 166.667 143.667 C 166.300 144.033, 166 146.733, 166 149.667 L 166 155 160.500 155 C 155.056 155, 155 155.030, 155 158 L 155 161 163.500 161 L 172 161 172 152.607 C 172 145.876, 171.687 144.094, 170.418 143.607 C 168.385 142.827, 167.492 142.841, 166.667 143.667 M 186.224 165.792 L 183.947 169.500 186.474 166.694 C 187.863 165.151, 189 163.464, 189 162.944 C 189 161.474, 188.663 161.820, 186.224 165.792 M 178.872 173.750 C 177.629 175.336, 177.664 175.371, 179.250 174.128 C 180.916 172.821, 181.445 172, 180.622 172 C 180.415 172, 179.627 172.787, 178.872 173.750 M 37 178.393 C 37 178.609, 37.698 179.054, 38.552 179.382 C 39.442 179.723, 39.843 179.555, 39.493 178.989 C 38.906 178.038, 37 177.583, 37 178.393" stroke="none" fill="#6fd090" fill-rule="evenodd"/><path d="M 36.803 7.399 C 30.969 8.970, 24.960 12.875, 21.601 17.279 C 15.923 24.723, 16 23.674, 16 93.810 C 16 157.748, 16.021 158.411, 18.142 162.793 C 20.917 168.527, 25.577 173.123, 31.642 176.108 L 36.500 178.500 103.500 178.500 L 170.500 178.500 174.723 176.243 C 180.670 173.066, 185.857 167.554, 188.659 161.435 L 191.057 156.196 190.778 91.848 L 190.500 27.500 187.742 22.267 C 186.094 19.141, 182.946 15.423, 179.926 13.036 C 170.877 5.883, 172.079 5.992, 103.068 6.067 C 56.764 6.118, 40.336 6.448, 36.803 7.399 M 34 33.961 L 34 43 37 43 L 40 43 40 37 L 40 31 46.066 31 C 52.094 31, 52.131 30.983, 51.816 28.250 C 51.501 25.509, 51.471 25.499, 42.750 25.211 L 34 24.922 34 33.961 M 155 28 C 155 30.966, 155.061 31, 160.450 31 L 165.900 31 166.200 36.750 C 166.484 42.193, 166.647 42.517, 169.250 42.816 L 172 43.133 172 34.066 L 172 25 163.500 25 L 155 25 155 28 M 107.399 29.401 C 107.104 30.172, 107.005 36.135, 107.181 42.651 L 107.500 54.500 114.500 54.500 L 121.500 54.500 121.794 61.750 L 122.088 69 135.044 69 L 148 69 148 48.500 L 148 28 127.969 28 C 111.711 28, 107.836 28.264, 107.399 29.401 M 58 53.500 L 58 69 71.500 69 L 85 69 85 62.046 L 85 55.091 91.750 54.796 L 98.500 54.500 98.790 46.250 L 99.081 38 78.540 38 L 58 38 58 53.500 M 93.667 63.667 C 93.300 64.033, 93 71.008, 93 79.167 L 93 94 85.411 94 L 77.822 94 80.515 97.250 C 81.996 99.037, 87.750 105.138, 93.302 110.806 L 103.396 121.112 115.647 108.306 C 122.385 101.263, 127.921 95.182, 127.949 94.794 C 127.977 94.405, 124.737 93.955, 120.750 93.794 L 113.500 93.500 113.224 78.250 L 112.948 63 103.641 63 C 98.522 63, 94.033 63.300, 93.667 63.667 M 140 94.941 C 140 105.359, 140.339 114.091, 140.753 114.347 C 141.438 114.771, 170.342 98.058, 172.285 96.115 C 172.742 95.658, 170.953 93.937, 168.308 92.292 C 165.664 90.647, 158.739 86.308, 152.920 82.651 C 147.101 78.993, 141.814 76, 141.170 76 C 140.318 76, 140 81.143, 140 94.941 M 34 94.976 L 34 113 51.523 113 L 69.046 113 68.773 95.250 L 68.500 77.500 51.250 77.226 L 34 76.953 34 94.976 M 65.925 137.184 C 65.337 139.669, 64.984 150.800, 65.436 152.603 L 66.038 155 103.519 155 L 141 155 141 146 L 141 137 138 137 L 135 137 135 143 L 135 149 102.927 149 L 70.855 149 71.127 143.250 C 71.390 137.670, 71.319 137.491, 68.699 137.184 C 67.215 137.010, 65.966 137.010, 65.925 137.184 M 34.667 143.667 C 34.300 144.033, 34 148.083, 34 152.667 L 34 161 43 161 L 52 161 52 158 L 52 155 46 155 L 40 155 40 149 C 40 143.381, 39.852 143, 37.667 143 C 36.383 143, 35.033 143.300, 34.667 143.667 M 166.667 143.667 C 166.300 144.033, 166 146.733, 166 149.667 L 166 155 160.500 155 C 155.056 155, 155 155.030, 155 158 L 155 161 163.500 161 L 172 161 172 152.607 C 172 145.876, 171.687 144.094, 170.418 143.607 C 168.385 142.827, 167.492 142.841, 166.667 143.667" stroke="none" fill="#082515" fill-rule="evenodd"/></svg>